<svg xmlns="http://www.w3.org/2000/svg" width="165" height="44" fill="none" class="block absolute top-0 left-0"><path fill="#066FEB" d="M35.994 8.645H25.618a.41.41 0 0 1-.38-.25l-2.026-6.81c-.504-2.055-2.691-2.08-3.777-.257L14.6 8.448c-.107.142-.215.152-.38.152L3.746 8.548c-1.23 0-2.227 1.089-2.227 2.32a2.23 2.23 0 0 0 1.004 1.955l5.484 4.658c.173.11.234.332.153.517L.957 28.882l-.162.432c-.953 2.159 1.622 4.32 4.076 3.065l16.667-9.495c.488-.319.03-1.17-.494-.969L8.43 26.895a.417.417 0 0 1-.53-.559l6.095-9.118a.41.41 0 0 0-.153-.517l-3.413-2.926c-.344-.227-.185-.764.228-.764h6.01a.42.42 0 0 0 .38-.247l2.829-4.22c.205-.321.676-.315.767.036l1.22 4.22c.064.15.214.247.38.247h5.874c.413 0 .575.536.227.764l-5.09 2.926a.42.42 0 0 0-.153.517l4.187 14.917h4.541L28.274 19.4a.42.42 0 0 1 .152-.517l9.096-5.191c1.018-.546 1.765-1.801 1.437-3.046-.377-1.434-1.427-2.003-2.968-2.003z"></path><path fill="#FAFAFA" d="M135.224 17.796c0 4.795 3.899 8.694 8.695 8.694a8.8 8.8 0 0 0 5.212-1.723v1.378h3.596V9.53h-3.59v1.283a8.8 8.8 0 0 0-5.222-1.716c-4.795 0-8.694 3.899-8.694 8.694zm3.486 0a5.22 5.22 0 0 1 5.212-5.213 5.22 5.22 0 0 1 5.212 5.213 5.22 5.22 0 0 1-5.212 5.212 5.22 5.22 0 0 1-5.212-5.212M164.308 9.506v3.886c-2.358-.166-5.118.932-5.118 4.652v8.375h-3.589V9.806h3.589v2.791c.997-2.26 3.024-3.091 5.118-3.091M46.856 17.794c0-4.952 3.755-8.74 8.772-8.74 3.258 0 6.082 1.694 7.411 4.287l-3.091 1.795c-.73-1.56-2.359-2.557-4.352-2.557-2.926 0-5.15 2.224-5.15 5.215s2.224 5.219 5.15 5.219c1.993 0 3.622-1.03 4.42-2.558l3.092 1.763c-1.398 2.625-4.222 4.32-7.476 4.32-5.017 0-8.773-3.822-8.773-8.74zM108.359 15.8v10.3h-3.59V16.033c0-2.326-1.264-3.623-3.222-3.623-2.127 0-3.622 1.362-3.622 4.385v9.304h-3.59v-10.07c0-2.326-1.163-3.622-3.124-3.622s-3.687 1.361-3.687 4.385v9.303h-3.59V9.487h3.59v1.994c1.061-1.63 2.69-2.427 4.752-2.427s3.756.964 4.72 2.625c1.098-1.726 2.858-2.625 5.086-2.625 3.756 0 6.28 2.593 6.28 6.746zM122.978 21.416c0 3.323-2.889 5.118-6.479 5.118-3.323 0-5.714-1.495-6.779-3.886l3.091-1.795c.531 1.495 1.86 2.39 3.688 2.39 1.596 0 2.824-.53 2.824-1.86 0-2.957-8.939-1.296-8.939-7.244 0-3.124 2.691-5.085 6.082-5.085 2.727 0 4.984 1.264 6.147 3.456l-3.023 1.694c-.599-1.296-1.762-1.893-3.124-1.893-1.361 0-2.427.564-2.427 1.763 0 3.023 8.939 1.195 8.939 7.342M131.101 23.136h3.466v3.495h-3.915c-3.281 0-5.398-2.202-5.398-5.613V6.852l3.723-1.635v4.199h5.105v3.495h-5.105v7.411c0 1.896.694 2.815 2.121 2.815zM67.996 32.75v-8.027a8.8 8.8 0 0 0 5.212 1.723c4.796 0 8.695-3.9 8.695-8.695s-3.9-8.694-8.695-8.694-8.811 3.899-8.811 8.694V32.75h3.599m5.212-20.211a5.22 5.22 0 0 1 5.213 5.212 5.22 5.22 0 0 1-5.213 5.212 5.22 5.22 0 0 1-5.212-5.212 5.22 5.22 0 0 1 5.212-5.212"></path><g fill="#FAFAFA" clip-path="url(#cpmstar_logo_blue_svg__a)"><path d="M85.117 37.899v4.358h-.758v-.748c-.35.531-.906.864-1.647.864-1.213 0-2.205-1.004-2.205-2.293s.992-2.297 2.205-2.297c.741 0 1.297.332 1.647.864v-.748zm-.758 2.177c0-.888-.671-1.559-1.552-1.559s-1.542.671-1.542 1.56c0 .887.671 1.558 1.542 1.558a1.53 1.53 0 0 0 1.552-1.559M90.126 39.58v2.673h-.758v-2.632c0-.713-.41-1.115-1.08-1.115-.672 0-1.266.41-1.266 1.437v2.31h-.758v-4.355h.758v.63c.322-.515.8-.742 1.412-.742 1.02 0 1.692.682 1.692 1.797zM96.958 40.887h-2.744l-.496 1.367h-.864l2.272-6.1h.916l2.276 6.1h-.864zm-.28-.759-1.097-3.005-1.09 3.005zM103.222 36.154v6.1h-.759v-.748c-.349.53-.905.863-1.646.863-1.213 0-2.206-1.003-2.206-2.293s.993-2.293 2.206-2.293c.741 0 1.297.332 1.646.863v-2.492zm-.759 3.922c0-.888-.671-1.559-1.552-1.559s-1.541.671-1.541 1.559.671 1.559 1.541 1.559a1.53 1.53 0 0 0 1.552-1.559M104.243 36.597c0-.28.227-.514.514-.514s.507.234.507.514-.227.507-.507.507a.513.513 0 0 1-.514-.507m.129 1.297h.759v4.358h-.759v-4.3580000000000005M107.5 38.628v2.362c0 .661.384.62 1.16.584v.678c-1.307.175-1.919-.175-1.919-1.265v-2.36h-.863v-.73h.863v-.996l.759-.227v1.22h1.16v.73h-1.16zM113.349 37.898v4.358h-.759v-.626c-.321.514-.8.741-1.412.741-1.021 0-1.692-.681-1.692-1.796v-2.678h.759v2.632c0 .713.409 1.115 1.08 1.115s1.265-.409 1.265-1.436v-2.31zM118.864 36.154v6.1h-.758v-.748c-.35.53-.906.863-1.647.863-1.212 0-2.205-1.003-2.205-2.293s.993-2.293 2.205-2.293c.741 0 1.297.332 1.647.863v-2.492zm-.758 3.922c0-.888-.671-1.559-1.552-1.559s-1.542.671-1.542 1.559.671 1.559 1.542 1.559a1.53 1.53 0 0 0 1.552-1.559M122.121 41.653c.601 0 1.038-.28 1.255-.637l.643.367c-.385.594-1.045.986-1.916.986-1.401 0-2.334-.986-2.334-2.293s.922-2.293 2.282-2.293 2.171 1.08 2.171 2.3q-.001.17-.028.34h-3.653c.147.782.765 1.23 1.576 1.23zm-1.576-1.892h2.911c-.129-.863-.748-1.265-1.402-1.265-.817 0-1.384.507-1.506 1.265zM127.025 40.076c0-1.29.975-2.293 2.293-2.293.863 0 1.594.455 1.926 1.143l-.636.367c-.217-.461-.706-.765-1.29-.765-.87 0-1.535.67-1.535 1.552 0 .88.665 1.541 1.535 1.541.594 0 1.073-.304 1.314-.759l.643.374c-.367.679-1.108 1.133-1.961 1.133-1.314 0-2.293-1.003-2.293-2.293zM131.723 40.076c0-1.29 1.02-2.293 2.293-2.293a2.28 2.28 0 0 1 2.299 2.293 2.28 2.28 0 0 1-2.299 2.293 2.274 2.274 0 0 1-2.293-2.293m3.834 0c0-.88-.671-1.552-1.541-1.552-.871 0-1.535.671-1.535 1.552 0 .88.671 1.552 1.535 1.552s1.541-.671 1.541-1.552M143.556 39.545v2.709h-.759v-2.685c0-.688-.384-1.062-.957-1.062-.612 0-1.073.384-1.073 1.324v2.423h-.759v-2.685c0-.688-.356-1.062-.923-1.062-.566 0-1.115.384-1.115 1.324v2.423h-.758v-4.355h.758v.583c.315-.49.766-.699 1.297-.699.594 0 1.028.27 1.283.741.304-.496.8-.74 1.367-.74.968 0 1.639.67 1.639 1.76M149.22 40.076c0 1.29-.993 2.293-2.206 2.293-.741 0-1.297-.332-1.646-.863v2.492h-.759v-6.1h.759v.749c.349-.532.905-.864 1.646-.864 1.213 0 2.206 1.003 2.206 2.293m-.759 0c0-.888-.671-1.559-1.541-1.559a1.53 1.53 0 0 0-1.552 1.56c0 .887.671 1.558 1.552 1.558s1.541-.671 1.541-1.559M154.49 37.898v4.359h-.758v-.748c-.35.53-.906.863-1.647.863-1.212 0-2.205-1.003-2.205-2.293s.993-2.293 2.205-2.293c.741 0 1.297.332 1.647.864v-.748h.758zm-.758 2.177c0-.887-.671-1.558-1.552-1.558s-1.542.67-1.542 1.558.671 1.56 1.542 1.56a1.53 1.53 0 0 0 1.552-1.56M159.498 39.58v2.673h-.758v-2.632c0-.713-.409-1.115-1.081-1.115s-1.265.41-1.265 1.437v2.31h-.758v-4.355h.758v.63c.322-.515.801-.742 1.412-.742 1.021 0 1.692.682 1.692 1.797zM164.309 37.898l-1.779 4.627c-.367.975-1.045 1.535-1.933 1.472v-.706c.584.042.951-.315 1.178-.888l.077-.164-1.902-4.341h.811l1.482 3.414 1.255-3.414z"></path></g><defs><clipPath id="cpmstar_logo_blue_svg__a"><path fill="#fff" d="M80.506 36.083h83.802V44H80.506z"></path></clipPath></defs></svg>