<svg width="500" height="189" viewBox="0 0 500 189" fill="none" xmlns="http://www.w3.org/2000/svg">
<path d="M61.7421 16.837C66.1588 16.837 69.7422 13.2535 69.7422 8.8368C69.7422 4.42006 66.1588 0.83667 61.7421 0.83667C57.3253 0.83667 53.7419 4.42006 53.7419 8.8368C53.7419 13.2535 57.3253 16.837 61.7421 16.837Z" fill="white"/>
<path d="M7.32456 39.0874C1.24111 41.5874 -1.59227 48.5042 0.907775 54.5877C3.40782 60.6711 10.3246 63.5045 16.4081 61.0044C22.4915 58.5044 25.3249 51.5876 22.8248 45.5042C20.3248 39.5041 13.408 36.5873 7.32456 39.0874Z" fill="white"/>
<path d="M111.826 31.1706C105.493 15.837 87.9093 8.50351 72.5757 14.837C67.8256 16.7537 63.8255 19.837 60.8255 23.5038C55.242 19.1704 47.4919 17.7537 40.4918 20.6704C30.0749 25.0038 25.0748 36.9207 29.4082 47.3375C30.3249 49.5876 31.6583 51.5876 33.1583 53.2543C25.4082 61.4211 22.7415 73.6713 27.2415 84.7549C33.4083 99.7551 50.6586 106.922 65.6589 100.755C68.7423 99.5051 71.409 97.7551 73.7424 95.7551C80.3258 90.005 84.0759 81.5048 83.8259 72.7547C87.7426 72.7547 91.6593 72.088 95.4927 70.5046C104.743 66.6712 111.076 58.7544 113.243 49.7542C114.66 43.7541 114.326 37.254 111.826 31.1706Z" fill="white"/>
<path d="M61.7421 16.837C66.1588 16.837 69.7422 13.2535 69.7422 8.8368C69.7422 4.42006 66.1588 0.83667 61.7421 0.83667C57.3253 0.83667 53.7419 4.42006 53.7419 8.8368C53.7419 13.2535 57.3253 16.837 61.7421 16.837Z" fill="#00AAFF"/>
<path d="M7.32456 39.0874C1.24111 41.5874 -1.59227 48.5042 0.907775 54.5877C3.40782 60.6711 10.3246 63.5045 16.4081 61.0044C22.4915 58.5044 25.3249 51.5876 22.8248 45.5042C20.3248 39.5041 13.408 36.5873 7.32456 39.0874Z" fill="#00AAFF"/>
<path d="M57.9922 57.5043C59.9922 61.0043 62.5756 63.921 65.5757 66.2544C67.0757 60.671 70.0757 55.6709 74.1591 51.7542C72.0758 49.8375 69.7424 48.2541 67.2424 47.0874C65.4923 51.4208 62.3256 55.1709 57.9922 57.5043Z" fill="#FF7400"/>
<path d="M83.8259 72.6712C77.1591 72.5878 70.7424 70.3378 65.4923 66.2544C64.6589 69.3378 64.3256 72.5045 64.5756 75.8379C65.0756 83.6714 68.4923 90.6715 73.7424 95.6716C80.4092 89.9215 84.0759 81.4213 83.8259 72.6712Z" fill="#FFEA80"/>
<path d="M64.5755 75.8379C64.3255 72.5045 64.7422 69.3378 65.4922 66.2544C62.4922 63.921 59.9088 61.0043 57.9088 57.5042C57.2421 57.8376 56.6587 58.1709 55.9087 58.4209C47.7419 61.7543 38.6584 59.4209 33.075 53.2542C25.3248 61.421 22.5748 73.6712 27.1582 84.7547C33.325 99.755 50.5753 106.922 65.5756 100.755C68.5756 99.505 71.3257 97.7549 73.659 95.7549C68.5756 90.6715 65.0756 83.6714 64.5755 75.8379Z" fill="#FFD400"/>
<path d="M55.992 58.5044C56.6587 58.2544 57.3254 57.9211 57.9087 57.5877C57.3254 56.5044 56.6587 55.3377 56.1587 54.171C54.8253 50.9209 54.1587 47.5875 53.992 44.2542C50.4086 44.3375 46.7419 45.0041 43.1585 46.4208C39.2417 48.0875 35.825 50.4209 33.075 53.3376C38.7417 59.5044 47.8252 61.8378 55.992 58.5044Z" fill="#009500"/>
<path d="M60.8256 23.5871C55.2422 19.1704 47.4921 17.837 40.4919 20.7537C30.0751 25.0038 25.1583 37.004 29.4084 47.4209C30.3251 49.6709 31.6584 51.671 33.1585 53.3377C35.9085 50.4209 39.3252 48.0042 43.242 46.4208C46.742 44.9208 50.4088 44.2542 54.0755 44.2542C53.6588 36.6707 56.0755 29.3372 60.8256 23.5871Z" fill="#00B359"/>
<path d="M67.1588 47.0875C63.0754 45.1708 58.5754 44.0874 53.9919 44.1707C54.1586 47.5041 54.8253 50.8375 56.1586 54.0876C56.6587 55.3376 57.242 56.421 57.9087 57.5043C62.3254 55.1709 65.4921 51.4209 67.1588 47.0875Z" fill="#005100"/>
<path d="M67.0757 31.8373C65.659 28.4206 63.4923 25.6705 60.8256 23.5872C56.0755 29.3373 53.6588 36.6707 54.0755 44.1709C58.6589 44.0875 63.159 45.1709 67.2424 47.0876C69.0757 42.3375 69.1591 36.9207 67.0757 31.8373Z" fill="#006209"/>
<path d="M111.826 31.1706C105.493 15.837 87.9092 8.50351 72.5756 14.837C67.8256 16.7537 63.8255 19.837 60.8254 23.5038C63.4922 25.5872 65.7422 28.4205 67.0755 31.7539C69.1589 36.8373 69.0756 42.2541 67.1589 47.0042C69.6589 48.1709 71.9923 49.7543 74.159 51.671C79.1591 47.0042 85.6592 44.0041 92.9927 43.5041C100.576 43.0041 107.66 45.3375 113.243 49.5876C114.66 43.7541 114.326 37.254 111.826 31.1706Z" fill="#FF8C1A"/>
<path d="M92.9928 43.5873C85.6594 44.0873 79.0759 47.0874 74.1592 51.7542C77.3259 54.5875 79.9093 58.1709 81.6593 62.3377C83.076 65.7544 83.7427 69.1711 83.826 72.6712C87.7428 72.6712 91.6595 72.0045 95.4929 70.4212C104.743 66.5878 111.076 58.6709 113.243 49.6708C107.66 45.4207 100.576 43.0873 92.9928 43.5873Z" fill="#FFC68D"/>
<path d="M74.1592 51.7542C69.9924 55.6709 66.9924 60.671 65.5757 66.2544C70.7424 70.3378 77.2426 72.5878 83.9093 72.6712C83.826 69.2544 83.076 65.7544 81.7426 62.3377C79.9093 58.1709 77.3259 54.5875 74.1592 51.7542Z" fill="#FFBA80"/>
<path d="M153.244 70.0045C145.827 62.4211 135.16 58.5876 121.16 58.5876C120.993 58.5876 120.827 58.5876 120.66 58.5876C123.327 62.7544 124.993 67.6712 125.327 72.9212C125.41 74.0046 125.41 75.1713 125.327 76.2546C131.493 77.1713 136.577 80.0047 140.494 84.9215C145.244 90.9216 147.66 99.4217 147.66 110.422C147.66 121.422 145.244 129.922 140.494 135.922C135.744 141.922 129.327 144.923 121.16 144.923C113.076 144.923 106.576 141.922 101.743 135.922C96.9095 129.922 94.4928 121.422 94.4928 110.422C94.4928 108.589 94.5761 106.922 94.7428 105.255C87.326 105.172 80.4092 102.505 75.1591 97.9217C74.5758 101.838 74.2424 106.005 74.2424 110.505C74.2424 128.089 79.2425 141.589 89.1594 150.923C96.5762 158.506 107.243 162.339 121.243 162.339C135.244 162.339 145.91 158.506 153.327 150.923C163.161 141.589 168.161 128.089 168.161 110.505C167.994 92.4216 163.077 78.9214 153.244 70.0045Z" fill="white"/>
<path d="M233.995 95.5884C239.912 101.838 242.829 111.005 242.829 123.089C242.829 135.839 239.912 145.589 234.162 152.256C228.412 158.923 220.995 162.256 211.911 162.256C206.078 162.256 201.328 160.84 197.494 157.923C195.411 156.339 193.328 154.006 191.328 150.923V188.673H172.577V87.8382H190.661V98.5051C192.744 95.3384 194.911 92.9217 197.245 91.0883C201.495 87.8382 206.495 86.2549 212.328 86.2549C220.912 86.2549 228.078 89.3383 233.995 95.5884ZM219.495 109.172C216.912 104.922 212.745 102.755 206.995 102.755C200.078 102.755 195.328 106.005 192.744 112.505C191.411 115.922 190.744 120.339 190.744 125.672C190.744 134.089 192.994 140.006 197.494 143.423C200.161 145.423 203.328 146.423 206.995 146.423C212.328 146.423 216.412 144.423 219.162 140.339C221.912 136.256 223.328 130.839 223.328 124.089C223.328 118.422 222.078 113.505 219.495 109.172Z" fill="white"/>
<path d="M299.163 89.3382C304.246 91.5882 308.413 95.1716 311.663 100.005C314.663 104.338 316.58 109.255 317.413 115.005C317.913 118.339 318.163 123.089 317.997 129.339H265.329C265.662 136.589 268.162 141.672 272.913 144.589C275.746 146.423 279.246 147.339 283.329 147.339C287.663 147.339 291.163 146.256 293.83 144.006C295.33 142.839 296.58 141.172 297.746 139.006H317.08C316.58 143.256 314.247 147.673 310.08 152.089C303.58 159.173 294.496 162.673 282.829 162.673C273.163 162.673 264.662 159.673 257.329 153.756C249.995 147.839 246.245 138.172 246.245 124.755C246.245 112.255 249.579 102.588 256.246 95.9217C262.912 89.2549 271.496 85.8381 282.079 85.8381C288.496 85.9215 294.163 87.0881 299.163 89.3382ZM270.912 105.672C268.246 108.422 266.579 112.172 265.912 116.839H298.496C298.163 111.839 296.496 108.005 293.496 105.422C290.496 102.838 286.746 101.505 282.246 101.505C277.329 101.505 273.579 102.922 270.912 105.672Z" fill="white"/>
<path d="M381.164 92.0049C385.915 95.9216 388.248 102.422 388.248 111.505V160.256H368.914V116.172C368.914 112.339 368.414 109.422 367.414 107.422C365.581 103.672 362.081 101.838 356.914 101.838C350.497 101.838 346.164 104.588 343.83 110.005C342.58 112.922 341.997 116.589 341.997 121.005V160.173H323.08V87.9215H341.414V98.505C343.83 94.755 346.164 92.0883 348.247 90.5049C352.164 87.5882 357.081 86.0881 362.997 86.0881C370.331 86.0881 376.414 88.0882 381.164 92.0049Z" fill="white"/>
<path d="M416.332 160.256H392.332L424.165 109.838L393.915 61.3376H418.582L436.249 93.5882L454.333 61.3376H478.166L447.916 109.005L480.083 160.256H454.999L436.249 126.505L416.332 160.256Z" fill="white"/>
<path d="M497.833 159.173C496.417 160.59 494.583 161.34 492.583 161.34C490.583 161.34 488.75 160.59 487.333 159.173C485.916 157.756 485.167 155.923 485.167 153.839C485.167 151.756 485.916 150.006 487.333 148.589C488.75 147.173 490.5 146.423 492.583 146.423C494.667 146.423 496.417 147.173 497.833 148.589C499.25 150.006 500 151.756 500 153.839C500 155.923 499.25 157.756 497.833 159.173ZM488 149.339C486.75 150.589 486.167 152.089 486.167 153.839C486.167 155.673 486.75 157.173 488 158.423C489.25 159.673 490.75 160.34 492.5 160.34C494.25 160.34 495.833 159.756 497 158.423C498.25 157.173 498.833 155.673 498.833 153.839C498.833 152.089 498.25 150.589 497 149.339C495.75 148.089 494.25 147.423 492.5 147.423C490.75 147.506 489.25 148.089 488 149.339ZM492.417 149.756C493.417 149.756 494.167 149.839 494.667 150.089C495.5 150.423 495.917 151.173 495.917 152.173C495.917 152.923 495.667 153.423 495.083 153.756C494.833 153.923 494.417 154.089 493.917 154.173C494.583 154.256 495 154.506 495.333 155.006C495.667 155.423 495.75 155.839 495.75 156.256V156.839C495.75 157.006 495.75 157.256 495.75 157.423C495.75 157.673 495.75 157.756 495.833 157.839L495.917 157.923H494.583V157.839V157.756V157.506V156.839C494.583 155.923 494.333 155.256 493.833 154.923C493.5 154.756 493 154.673 492.25 154.673H491.083V157.923H489.667V149.756H492.417V149.756ZM493.917 151.089C493.583 150.923 493 150.756 492.167 150.756H490.917V153.756H492.25C492.833 153.756 493.333 153.673 493.667 153.589C494.25 153.339 494.5 152.923 494.5 152.339C494.5 151.673 494.333 151.256 493.917 151.089Z" fill="white"/>
</svg>
